%TF.GenerationSoftware,KiCad,Pcbnew,10.0.3*%
%TF.CreationDate,2026-05-30T12:57:23+03:00*%
%TF.ProjectId,mdioprobe,6d64696f-7072-46f6-9265-2e6b69636164,rev?*%
%TF.SameCoordinates,Original*%
%TF.FileFunction,Legend,Top*%
%TF.FilePolarity,Positive*%
%FSLAX46Y46*%
G04 Gerber Fmt 4.6, Leading zero omitted, Abs format (unit mm)*
G04 Created by KiCad (PCBNEW 10.0.3) date 2026-05-30 12:57:23*
%MOMM*%
%LPD*%
G01*
G04 APERTURE LIST*
%ADD10C,0.100000*%
%ADD11C,0.150000*%
%ADD12C,0.120000*%
G04 APERTURE END LIST*
D10*
X137501503Y-108597942D02*
X137501503Y-107797942D01*
X137501503Y-107912228D02*
X137558646Y-107855085D01*
X137558646Y-107855085D02*
X137672931Y-107797942D01*
X137672931Y-107797942D02*
X137844360Y-107797942D01*
X137844360Y-107797942D02*
X137958646Y-107855085D01*
X137958646Y-107855085D02*
X138015789Y-107969371D01*
X138015789Y-107969371D02*
X138015789Y-108597942D01*
X138015789Y-107969371D02*
X138072931Y-107855085D01*
X138072931Y-107855085D02*
X138187217Y-107797942D01*
X138187217Y-107797942D02*
X138358646Y-107797942D01*
X138358646Y-107797942D02*
X138472931Y-107855085D01*
X138472931Y-107855085D02*
X138530074Y-107969371D01*
X138530074Y-107969371D02*
X138530074Y-108597942D01*
X139558646Y-108540800D02*
X139444360Y-108597942D01*
X139444360Y-108597942D02*
X139215789Y-108597942D01*
X139215789Y-108597942D02*
X139101503Y-108540800D01*
X139101503Y-108540800D02*
X139044360Y-108426514D01*
X139044360Y-108426514D02*
X139044360Y-107969371D01*
X139044360Y-107969371D02*
X139101503Y-107855085D01*
X139101503Y-107855085D02*
X139215789Y-107797942D01*
X139215789Y-107797942D02*
X139444360Y-107797942D01*
X139444360Y-107797942D02*
X139558646Y-107855085D01*
X139558646Y-107855085D02*
X139615789Y-107969371D01*
X139615789Y-107969371D02*
X139615789Y-108083657D01*
X139615789Y-108083657D02*
X139044360Y-108197942D01*
X140072931Y-108540800D02*
X140187217Y-108597942D01*
X140187217Y-108597942D02*
X140415788Y-108597942D01*
X140415788Y-108597942D02*
X140530074Y-108540800D01*
X140530074Y-108540800D02*
X140587217Y-108426514D01*
X140587217Y-108426514D02*
X140587217Y-108369371D01*
X140587217Y-108369371D02*
X140530074Y-108255085D01*
X140530074Y-108255085D02*
X140415788Y-108197942D01*
X140415788Y-108197942D02*
X140244360Y-108197942D01*
X140244360Y-108197942D02*
X140130074Y-108140800D01*
X140130074Y-108140800D02*
X140072931Y-108026514D01*
X140072931Y-108026514D02*
X140072931Y-107969371D01*
X140072931Y-107969371D02*
X140130074Y-107855085D01*
X140130074Y-107855085D02*
X140244360Y-107797942D01*
X140244360Y-107797942D02*
X140415788Y-107797942D01*
X140415788Y-107797942D02*
X140530074Y-107855085D01*
X141101503Y-108597942D02*
X141101503Y-107397942D01*
X141615789Y-108597942D02*
X141615789Y-107969371D01*
X141615789Y-107969371D02*
X141558646Y-107855085D01*
X141558646Y-107855085D02*
X141444360Y-107797942D01*
X141444360Y-107797942D02*
X141272931Y-107797942D01*
X141272931Y-107797942D02*
X141158646Y-107855085D01*
X141158646Y-107855085D02*
X141101503Y-107912228D01*
X142187217Y-108597942D02*
X142187217Y-107797942D01*
X142187217Y-107397942D02*
X142130074Y-107455085D01*
X142130074Y-107455085D02*
X142187217Y-107512228D01*
X142187217Y-107512228D02*
X142244360Y-107455085D01*
X142244360Y-107455085D02*
X142187217Y-107397942D01*
X142187217Y-107397942D02*
X142187217Y-107512228D01*
X143272932Y-107797942D02*
X143272932Y-108597942D01*
X142758646Y-107797942D02*
X142758646Y-108426514D01*
X142758646Y-108426514D02*
X142815789Y-108540800D01*
X142815789Y-108540800D02*
X142930074Y-108597942D01*
X142930074Y-108597942D02*
X143101503Y-108597942D01*
X143101503Y-108597942D02*
X143215789Y-108540800D01*
X143215789Y-108540800D02*
X143272932Y-108483657D01*
X143844360Y-108597942D02*
X143844360Y-107797942D01*
X143844360Y-107912228D02*
X143901503Y-107855085D01*
X143901503Y-107855085D02*
X144015788Y-107797942D01*
X144015788Y-107797942D02*
X144187217Y-107797942D01*
X144187217Y-107797942D02*
X144301503Y-107855085D01*
X144301503Y-107855085D02*
X144358646Y-107969371D01*
X144358646Y-107969371D02*
X144358646Y-108597942D01*
X144358646Y-107969371D02*
X144415788Y-107855085D01*
X144415788Y-107855085D02*
X144530074Y-107797942D01*
X144530074Y-107797942D02*
X144701503Y-107797942D01*
X144701503Y-107797942D02*
X144815788Y-107855085D01*
X144815788Y-107855085D02*
X144872931Y-107969371D01*
X144872931Y-107969371D02*
X144872931Y-108597942D01*
X145444360Y-108483657D02*
X145501503Y-108540800D01*
X145501503Y-108540800D02*
X145444360Y-108597942D01*
X145444360Y-108597942D02*
X145387217Y-108540800D01*
X145387217Y-108540800D02*
X145444360Y-108483657D01*
X145444360Y-108483657D02*
X145444360Y-108597942D01*
X146015789Y-107797942D02*
X146015789Y-108597942D01*
X146015789Y-107912228D02*
X146072932Y-107855085D01*
X146072932Y-107855085D02*
X146187217Y-107797942D01*
X146187217Y-107797942D02*
X146358646Y-107797942D01*
X146358646Y-107797942D02*
X146472932Y-107855085D01*
X146472932Y-107855085D02*
X146530075Y-107969371D01*
X146530075Y-107969371D02*
X146530075Y-108597942D01*
X147558646Y-108540800D02*
X147444360Y-108597942D01*
X147444360Y-108597942D02*
X147215789Y-108597942D01*
X147215789Y-108597942D02*
X147101503Y-108540800D01*
X147101503Y-108540800D02*
X147044360Y-108426514D01*
X147044360Y-108426514D02*
X147044360Y-107969371D01*
X147044360Y-107969371D02*
X147101503Y-107855085D01*
X147101503Y-107855085D02*
X147215789Y-107797942D01*
X147215789Y-107797942D02*
X147444360Y-107797942D01*
X147444360Y-107797942D02*
X147558646Y-107855085D01*
X147558646Y-107855085D02*
X147615789Y-107969371D01*
X147615789Y-107969371D02*
X147615789Y-108083657D01*
X147615789Y-108083657D02*
X147044360Y-108197942D01*
X147958645Y-107797942D02*
X148415788Y-107797942D01*
X148130074Y-107397942D02*
X148130074Y-108426514D01*
X148130074Y-108426514D02*
X148187217Y-108540800D01*
X148187217Y-108540800D02*
X148301502Y-108597942D01*
X148301502Y-108597942D02*
X148415788Y-108597942D01*
D11*
X130609524Y-108962295D02*
X130609524Y-108162295D01*
X130609524Y-108162295D02*
X130800000Y-108162295D01*
X130800000Y-108162295D02*
X130914286Y-108200390D01*
X130914286Y-108200390D02*
X130990476Y-108276580D01*
X130990476Y-108276580D02*
X131028571Y-108352771D01*
X131028571Y-108352771D02*
X131066667Y-108505152D01*
X131066667Y-108505152D02*
X131066667Y-108619438D01*
X131066667Y-108619438D02*
X131028571Y-108771819D01*
X131028571Y-108771819D02*
X130990476Y-108848009D01*
X130990476Y-108848009D02*
X130914286Y-108924200D01*
X130914286Y-108924200D02*
X130800000Y-108962295D01*
X130800000Y-108962295D02*
X130609524Y-108962295D01*
X131333333Y-108162295D02*
X131828571Y-108162295D01*
X131828571Y-108162295D02*
X131561905Y-108467057D01*
X131561905Y-108467057D02*
X131676190Y-108467057D01*
X131676190Y-108467057D02*
X131752381Y-108505152D01*
X131752381Y-108505152D02*
X131790476Y-108543247D01*
X131790476Y-108543247D02*
X131828571Y-108619438D01*
X131828571Y-108619438D02*
X131828571Y-108809914D01*
X131828571Y-108809914D02*
X131790476Y-108886104D01*
X131790476Y-108886104D02*
X131752381Y-108924200D01*
X131752381Y-108924200D02*
X131676190Y-108962295D01*
X131676190Y-108962295D02*
X131447619Y-108962295D01*
X131447619Y-108962295D02*
X131371428Y-108924200D01*
X131371428Y-108924200D02*
X131333333Y-108886104D01*
X124716667Y-104286104D02*
X124678571Y-104324200D01*
X124678571Y-104324200D02*
X124564286Y-104362295D01*
X124564286Y-104362295D02*
X124488095Y-104362295D01*
X124488095Y-104362295D02*
X124373809Y-104324200D01*
X124373809Y-104324200D02*
X124297619Y-104248009D01*
X124297619Y-104248009D02*
X124259524Y-104171819D01*
X124259524Y-104171819D02*
X124221428Y-104019438D01*
X124221428Y-104019438D02*
X124221428Y-103905152D01*
X124221428Y-103905152D02*
X124259524Y-103752771D01*
X124259524Y-103752771D02*
X124297619Y-103676580D01*
X124297619Y-103676580D02*
X124373809Y-103600390D01*
X124373809Y-103600390D02*
X124488095Y-103562295D01*
X124488095Y-103562295D02*
X124564286Y-103562295D01*
X124564286Y-103562295D02*
X124678571Y-103600390D01*
X124678571Y-103600390D02*
X124716667Y-103638485D01*
X125440476Y-103562295D02*
X125059524Y-103562295D01*
X125059524Y-103562295D02*
X125021428Y-103943247D01*
X125021428Y-103943247D02*
X125059524Y-103905152D01*
X125059524Y-103905152D02*
X125135714Y-103867057D01*
X125135714Y-103867057D02*
X125326190Y-103867057D01*
X125326190Y-103867057D02*
X125402381Y-103905152D01*
X125402381Y-103905152D02*
X125440476Y-103943247D01*
X125440476Y-103943247D02*
X125478571Y-104019438D01*
X125478571Y-104019438D02*
X125478571Y-104209914D01*
X125478571Y-104209914D02*
X125440476Y-104286104D01*
X125440476Y-104286104D02*
X125402381Y-104324200D01*
X125402381Y-104324200D02*
X125326190Y-104362295D01*
X125326190Y-104362295D02*
X125135714Y-104362295D01*
X125135714Y-104362295D02*
X125059524Y-104324200D01*
X125059524Y-104324200D02*
X125021428Y-104286104D01*
X139409524Y-97112295D02*
X139409524Y-96312295D01*
X139409524Y-96312295D02*
X139600000Y-96312295D01*
X139600000Y-96312295D02*
X139714286Y-96350390D01*
X139714286Y-96350390D02*
X139790476Y-96426580D01*
X139790476Y-96426580D02*
X139828571Y-96502771D01*
X139828571Y-96502771D02*
X139866667Y-96655152D01*
X139866667Y-96655152D02*
X139866667Y-96769438D01*
X139866667Y-96769438D02*
X139828571Y-96921819D01*
X139828571Y-96921819D02*
X139790476Y-96998009D01*
X139790476Y-96998009D02*
X139714286Y-97074200D01*
X139714286Y-97074200D02*
X139600000Y-97112295D01*
X139600000Y-97112295D02*
X139409524Y-97112295D01*
X140628571Y-97112295D02*
X140171428Y-97112295D01*
X140400000Y-97112295D02*
X140400000Y-96312295D01*
X140400000Y-96312295D02*
X140323809Y-96426580D01*
X140323809Y-96426580D02*
X140247619Y-96502771D01*
X140247619Y-96502771D02*
X140171428Y-96540866D01*
X111440476Y-96312295D02*
X111440476Y-96959914D01*
X111440476Y-96959914D02*
X111478571Y-97036104D01*
X111478571Y-97036104D02*
X111516666Y-97074200D01*
X111516666Y-97074200D02*
X111592857Y-97112295D01*
X111592857Y-97112295D02*
X111745238Y-97112295D01*
X111745238Y-97112295D02*
X111821428Y-97074200D01*
X111821428Y-97074200D02*
X111859523Y-97036104D01*
X111859523Y-97036104D02*
X111897619Y-96959914D01*
X111897619Y-96959914D02*
X111897619Y-96312295D01*
X112697618Y-97112295D02*
X112240475Y-97112295D01*
X112469047Y-97112295D02*
X112469047Y-96312295D01*
X112469047Y-96312295D02*
X112392856Y-96426580D01*
X112392856Y-96426580D02*
X112316666Y-96502771D01*
X112316666Y-96502771D02*
X112240475Y-96540866D01*
X130466667Y-103186104D02*
X130428571Y-103224200D01*
X130428571Y-103224200D02*
X130314286Y-103262295D01*
X130314286Y-103262295D02*
X130238095Y-103262295D01*
X130238095Y-103262295D02*
X130123809Y-103224200D01*
X130123809Y-103224200D02*
X130047619Y-103148009D01*
X130047619Y-103148009D02*
X130009524Y-103071819D01*
X130009524Y-103071819D02*
X129971428Y-102919438D01*
X129971428Y-102919438D02*
X129971428Y-102805152D01*
X129971428Y-102805152D02*
X130009524Y-102652771D01*
X130009524Y-102652771D02*
X130047619Y-102576580D01*
X130047619Y-102576580D02*
X130123809Y-102500390D01*
X130123809Y-102500390D02*
X130238095Y-102462295D01*
X130238095Y-102462295D02*
X130314286Y-102462295D01*
X130314286Y-102462295D02*
X130428571Y-102500390D01*
X130428571Y-102500390D02*
X130466667Y-102538485D01*
X131152381Y-102462295D02*
X131000000Y-102462295D01*
X131000000Y-102462295D02*
X130923809Y-102500390D01*
X130923809Y-102500390D02*
X130885714Y-102538485D01*
X130885714Y-102538485D02*
X130809524Y-102652771D01*
X130809524Y-102652771D02*
X130771428Y-102805152D01*
X130771428Y-102805152D02*
X130771428Y-103109914D01*
X130771428Y-103109914D02*
X130809524Y-103186104D01*
X130809524Y-103186104D02*
X130847619Y-103224200D01*
X130847619Y-103224200D02*
X130923809Y-103262295D01*
X130923809Y-103262295D02*
X131076190Y-103262295D01*
X131076190Y-103262295D02*
X131152381Y-103224200D01*
X131152381Y-103224200D02*
X131190476Y-103186104D01*
X131190476Y-103186104D02*
X131228571Y-103109914D01*
X131228571Y-103109914D02*
X131228571Y-102919438D01*
X131228571Y-102919438D02*
X131190476Y-102843247D01*
X131190476Y-102843247D02*
X131152381Y-102805152D01*
X131152381Y-102805152D02*
X131076190Y-102767057D01*
X131076190Y-102767057D02*
X130923809Y-102767057D01*
X130923809Y-102767057D02*
X130847619Y-102805152D01*
X130847619Y-102805152D02*
X130809524Y-102843247D01*
X130809524Y-102843247D02*
X130771428Y-102919438D01*
X103433333Y-93012295D02*
X103433333Y-93583723D01*
X103433333Y-93583723D02*
X103395238Y-93698009D01*
X103395238Y-93698009D02*
X103319047Y-93774200D01*
X103319047Y-93774200D02*
X103204762Y-93812295D01*
X103204762Y-93812295D02*
X103128571Y-93812295D01*
X104233333Y-93812295D02*
X103776190Y-93812295D01*
X104004762Y-93812295D02*
X104004762Y-93012295D01*
X104004762Y-93012295D02*
X103928571Y-93126580D01*
X103928571Y-93126580D02*
X103852381Y-93202771D01*
X103852381Y-93202771D02*
X103776190Y-93240866D01*
X116466667Y-95412295D02*
X116200000Y-95031342D01*
X116009524Y-95412295D02*
X116009524Y-94612295D01*
X116009524Y-94612295D02*
X116314286Y-94612295D01*
X116314286Y-94612295D02*
X116390476Y-94650390D01*
X116390476Y-94650390D02*
X116428571Y-94688485D01*
X116428571Y-94688485D02*
X116466667Y-94764676D01*
X116466667Y-94764676D02*
X116466667Y-94878961D01*
X116466667Y-94878961D02*
X116428571Y-94955152D01*
X116428571Y-94955152D02*
X116390476Y-94993247D01*
X116390476Y-94993247D02*
X116314286Y-95031342D01*
X116314286Y-95031342D02*
X116009524Y-95031342D01*
X117152381Y-94612295D02*
X117000000Y-94612295D01*
X117000000Y-94612295D02*
X116923809Y-94650390D01*
X116923809Y-94650390D02*
X116885714Y-94688485D01*
X116885714Y-94688485D02*
X116809524Y-94802771D01*
X116809524Y-94802771D02*
X116771428Y-94955152D01*
X116771428Y-94955152D02*
X116771428Y-95259914D01*
X116771428Y-95259914D02*
X116809524Y-95336104D01*
X116809524Y-95336104D02*
X116847619Y-95374200D01*
X116847619Y-95374200D02*
X116923809Y-95412295D01*
X116923809Y-95412295D02*
X117076190Y-95412295D01*
X117076190Y-95412295D02*
X117152381Y-95374200D01*
X117152381Y-95374200D02*
X117190476Y-95336104D01*
X117190476Y-95336104D02*
X117228571Y-95259914D01*
X117228571Y-95259914D02*
X117228571Y-95069438D01*
X117228571Y-95069438D02*
X117190476Y-94993247D01*
X117190476Y-94993247D02*
X117152381Y-94955152D01*
X117152381Y-94955152D02*
X117076190Y-94917057D01*
X117076190Y-94917057D02*
X116923809Y-94917057D01*
X116923809Y-94917057D02*
X116847619Y-94955152D01*
X116847619Y-94955152D02*
X116809524Y-94993247D01*
X116809524Y-94993247D02*
X116771428Y-95069438D01*
X118666667Y-91836104D02*
X118628571Y-91874200D01*
X118628571Y-91874200D02*
X118514286Y-91912295D01*
X118514286Y-91912295D02*
X118438095Y-91912295D01*
X118438095Y-91912295D02*
X118323809Y-91874200D01*
X118323809Y-91874200D02*
X118247619Y-91798009D01*
X118247619Y-91798009D02*
X118209524Y-91721819D01*
X118209524Y-91721819D02*
X118171428Y-91569438D01*
X118171428Y-91569438D02*
X118171428Y-91455152D01*
X118171428Y-91455152D02*
X118209524Y-91302771D01*
X118209524Y-91302771D02*
X118247619Y-91226580D01*
X118247619Y-91226580D02*
X118323809Y-91150390D01*
X118323809Y-91150390D02*
X118438095Y-91112295D01*
X118438095Y-91112295D02*
X118514286Y-91112295D01*
X118514286Y-91112295D02*
X118628571Y-91150390D01*
X118628571Y-91150390D02*
X118666667Y-91188485D01*
X118933333Y-91112295D02*
X119466667Y-91112295D01*
X119466667Y-91112295D02*
X119123809Y-91912295D01*
X142833333Y-93162295D02*
X142833333Y-93733723D01*
X142833333Y-93733723D02*
X142795238Y-93848009D01*
X142795238Y-93848009D02*
X142719047Y-93924200D01*
X142719047Y-93924200D02*
X142604762Y-93962295D01*
X142604762Y-93962295D02*
X142528571Y-93962295D01*
X143176190Y-93238485D02*
X143214286Y-93200390D01*
X143214286Y-93200390D02*
X143290476Y-93162295D01*
X143290476Y-93162295D02*
X143480952Y-93162295D01*
X143480952Y-93162295D02*
X143557143Y-93200390D01*
X143557143Y-93200390D02*
X143595238Y-93238485D01*
X143595238Y-93238485D02*
X143633333Y-93314676D01*
X143633333Y-93314676D02*
X143633333Y-93390866D01*
X143633333Y-93390866D02*
X143595238Y-93505152D01*
X143595238Y-93505152D02*
X143138095Y-93962295D01*
X143138095Y-93962295D02*
X143633333Y-93962295D01*
X111216667Y-102636104D02*
X111178571Y-102674200D01*
X111178571Y-102674200D02*
X111064286Y-102712295D01*
X111064286Y-102712295D02*
X110988095Y-102712295D01*
X110988095Y-102712295D02*
X110873809Y-102674200D01*
X110873809Y-102674200D02*
X110797619Y-102598009D01*
X110797619Y-102598009D02*
X110759524Y-102521819D01*
X110759524Y-102521819D02*
X110721428Y-102369438D01*
X110721428Y-102369438D02*
X110721428Y-102255152D01*
X110721428Y-102255152D02*
X110759524Y-102102771D01*
X110759524Y-102102771D02*
X110797619Y-102026580D01*
X110797619Y-102026580D02*
X110873809Y-101950390D01*
X110873809Y-101950390D02*
X110988095Y-101912295D01*
X110988095Y-101912295D02*
X111064286Y-101912295D01*
X111064286Y-101912295D02*
X111178571Y-101950390D01*
X111178571Y-101950390D02*
X111216667Y-101988485D01*
X111978571Y-102712295D02*
X111521428Y-102712295D01*
X111750000Y-102712295D02*
X111750000Y-101912295D01*
X111750000Y-101912295D02*
X111673809Y-102026580D01*
X111673809Y-102026580D02*
X111597619Y-102102771D01*
X111597619Y-102102771D02*
X111521428Y-102140866D01*
X116516667Y-97662295D02*
X116250000Y-97281342D01*
X116059524Y-97662295D02*
X116059524Y-96862295D01*
X116059524Y-96862295D02*
X116364286Y-96862295D01*
X116364286Y-96862295D02*
X116440476Y-96900390D01*
X116440476Y-96900390D02*
X116478571Y-96938485D01*
X116478571Y-96938485D02*
X116516667Y-97014676D01*
X116516667Y-97014676D02*
X116516667Y-97128961D01*
X116516667Y-97128961D02*
X116478571Y-97205152D01*
X116478571Y-97205152D02*
X116440476Y-97243247D01*
X116440476Y-97243247D02*
X116364286Y-97281342D01*
X116364286Y-97281342D02*
X116059524Y-97281342D01*
X116783333Y-96862295D02*
X117316667Y-96862295D01*
X117316667Y-96862295D02*
X116973809Y-97662295D01*
X140266667Y-102236104D02*
X140228571Y-102274200D01*
X140228571Y-102274200D02*
X140114286Y-102312295D01*
X140114286Y-102312295D02*
X140038095Y-102312295D01*
X140038095Y-102312295D02*
X139923809Y-102274200D01*
X139923809Y-102274200D02*
X139847619Y-102198009D01*
X139847619Y-102198009D02*
X139809524Y-102121819D01*
X139809524Y-102121819D02*
X139771428Y-101969438D01*
X139771428Y-101969438D02*
X139771428Y-101855152D01*
X139771428Y-101855152D02*
X139809524Y-101702771D01*
X139809524Y-101702771D02*
X139847619Y-101626580D01*
X139847619Y-101626580D02*
X139923809Y-101550390D01*
X139923809Y-101550390D02*
X140038095Y-101512295D01*
X140038095Y-101512295D02*
X140114286Y-101512295D01*
X140114286Y-101512295D02*
X140228571Y-101550390D01*
X140228571Y-101550390D02*
X140266667Y-101588485D01*
X140533333Y-101512295D02*
X141028571Y-101512295D01*
X141028571Y-101512295D02*
X140761905Y-101817057D01*
X140761905Y-101817057D02*
X140876190Y-101817057D01*
X140876190Y-101817057D02*
X140952381Y-101855152D01*
X140952381Y-101855152D02*
X140990476Y-101893247D01*
X140990476Y-101893247D02*
X141028571Y-101969438D01*
X141028571Y-101969438D02*
X141028571Y-102159914D01*
X141028571Y-102159914D02*
X140990476Y-102236104D01*
X140990476Y-102236104D02*
X140952381Y-102274200D01*
X140952381Y-102274200D02*
X140876190Y-102312295D01*
X140876190Y-102312295D02*
X140647619Y-102312295D01*
X140647619Y-102312295D02*
X140571428Y-102274200D01*
X140571428Y-102274200D02*
X140533333Y-102236104D01*
X109159524Y-92212295D02*
X109159524Y-91412295D01*
X109159524Y-91412295D02*
X109350000Y-91412295D01*
X109350000Y-91412295D02*
X109464286Y-91450390D01*
X109464286Y-91450390D02*
X109540476Y-91526580D01*
X109540476Y-91526580D02*
X109578571Y-91602771D01*
X109578571Y-91602771D02*
X109616667Y-91755152D01*
X109616667Y-91755152D02*
X109616667Y-91869438D01*
X109616667Y-91869438D02*
X109578571Y-92021819D01*
X109578571Y-92021819D02*
X109540476Y-92098009D01*
X109540476Y-92098009D02*
X109464286Y-92174200D01*
X109464286Y-92174200D02*
X109350000Y-92212295D01*
X109350000Y-92212295D02*
X109159524Y-92212295D01*
X109921428Y-91488485D02*
X109959524Y-91450390D01*
X109959524Y-91450390D02*
X110035714Y-91412295D01*
X110035714Y-91412295D02*
X110226190Y-91412295D01*
X110226190Y-91412295D02*
X110302381Y-91450390D01*
X110302381Y-91450390D02*
X110340476Y-91488485D01*
X110340476Y-91488485D02*
X110378571Y-91564676D01*
X110378571Y-91564676D02*
X110378571Y-91640866D01*
X110378571Y-91640866D02*
X110340476Y-91755152D01*
X110340476Y-91755152D02*
X109883333Y-92212295D01*
X109883333Y-92212295D02*
X110378571Y-92212295D01*
X134190476Y-106512295D02*
X134190476Y-107159914D01*
X134190476Y-107159914D02*
X134228571Y-107236104D01*
X134228571Y-107236104D02*
X134266666Y-107274200D01*
X134266666Y-107274200D02*
X134342857Y-107312295D01*
X134342857Y-107312295D02*
X134495238Y-107312295D01*
X134495238Y-107312295D02*
X134571428Y-107274200D01*
X134571428Y-107274200D02*
X134609523Y-107236104D01*
X134609523Y-107236104D02*
X134647619Y-107159914D01*
X134647619Y-107159914D02*
X134647619Y-106512295D01*
X134952380Y-106512295D02*
X135447618Y-106512295D01*
X135447618Y-106512295D02*
X135180952Y-106817057D01*
X135180952Y-106817057D02*
X135295237Y-106817057D01*
X135295237Y-106817057D02*
X135371428Y-106855152D01*
X135371428Y-106855152D02*
X135409523Y-106893247D01*
X135409523Y-106893247D02*
X135447618Y-106969438D01*
X135447618Y-106969438D02*
X135447618Y-107159914D01*
X135447618Y-107159914D02*
X135409523Y-107236104D01*
X135409523Y-107236104D02*
X135371428Y-107274200D01*
X135371428Y-107274200D02*
X135295237Y-107312295D01*
X135295237Y-107312295D02*
X135066666Y-107312295D01*
X135066666Y-107312295D02*
X134990475Y-107274200D01*
X134990475Y-107274200D02*
X134952380Y-107236104D01*
X120833333Y-103462295D02*
X120833333Y-104033723D01*
X120833333Y-104033723D02*
X120795238Y-104148009D01*
X120795238Y-104148009D02*
X120719047Y-104224200D01*
X120719047Y-104224200D02*
X120604762Y-104262295D01*
X120604762Y-104262295D02*
X120528571Y-104262295D01*
X121138095Y-103462295D02*
X121633333Y-103462295D01*
X121633333Y-103462295D02*
X121366667Y-103767057D01*
X121366667Y-103767057D02*
X121480952Y-103767057D01*
X121480952Y-103767057D02*
X121557143Y-103805152D01*
X121557143Y-103805152D02*
X121595238Y-103843247D01*
X121595238Y-103843247D02*
X121633333Y-103919438D01*
X121633333Y-103919438D02*
X121633333Y-104109914D01*
X121633333Y-104109914D02*
X121595238Y-104186104D01*
X121595238Y-104186104D02*
X121557143Y-104224200D01*
X121557143Y-104224200D02*
X121480952Y-104262295D01*
X121480952Y-104262295D02*
X121252381Y-104262295D01*
X121252381Y-104262295D02*
X121176190Y-104224200D01*
X121176190Y-104224200D02*
X121138095Y-104186104D01*
X138366667Y-102312295D02*
X138100000Y-101931342D01*
X137909524Y-102312295D02*
X137909524Y-101512295D01*
X137909524Y-101512295D02*
X138214286Y-101512295D01*
X138214286Y-101512295D02*
X138290476Y-101550390D01*
X138290476Y-101550390D02*
X138328571Y-101588485D01*
X138328571Y-101588485D02*
X138366667Y-101664676D01*
X138366667Y-101664676D02*
X138366667Y-101778961D01*
X138366667Y-101778961D02*
X138328571Y-101855152D01*
X138328571Y-101855152D02*
X138290476Y-101893247D01*
X138290476Y-101893247D02*
X138214286Y-101931342D01*
X138214286Y-101931342D02*
X137909524Y-101931342D01*
X139090476Y-101512295D02*
X138709524Y-101512295D01*
X138709524Y-101512295D02*
X138671428Y-101893247D01*
X138671428Y-101893247D02*
X138709524Y-101855152D01*
X138709524Y-101855152D02*
X138785714Y-101817057D01*
X138785714Y-101817057D02*
X138976190Y-101817057D01*
X138976190Y-101817057D02*
X139052381Y-101855152D01*
X139052381Y-101855152D02*
X139090476Y-101893247D01*
X139090476Y-101893247D02*
X139128571Y-101969438D01*
X139128571Y-101969438D02*
X139128571Y-102159914D01*
X139128571Y-102159914D02*
X139090476Y-102236104D01*
X139090476Y-102236104D02*
X139052381Y-102274200D01*
X139052381Y-102274200D02*
X138976190Y-102312295D01*
X138976190Y-102312295D02*
X138785714Y-102312295D01*
X138785714Y-102312295D02*
X138709524Y-102274200D01*
X138709524Y-102274200D02*
X138671428Y-102236104D01*
X106283333Y-106293247D02*
X106016667Y-106293247D01*
X106016667Y-106712295D02*
X106016667Y-105912295D01*
X106016667Y-105912295D02*
X106397619Y-105912295D01*
X107121428Y-106712295D02*
X106664285Y-106712295D01*
X106892857Y-106712295D02*
X106892857Y-105912295D01*
X106892857Y-105912295D02*
X106816666Y-106026580D01*
X106816666Y-106026580D02*
X106740476Y-106102771D01*
X106740476Y-106102771D02*
X106664285Y-106140866D01*
X137886104Y-97483332D02*
X137924200Y-97521428D01*
X137924200Y-97521428D02*
X137962295Y-97635713D01*
X137962295Y-97635713D02*
X137962295Y-97711904D01*
X137962295Y-97711904D02*
X137924200Y-97826190D01*
X137924200Y-97826190D02*
X137848009Y-97902380D01*
X137848009Y-97902380D02*
X137771819Y-97940475D01*
X137771819Y-97940475D02*
X137619438Y-97978571D01*
X137619438Y-97978571D02*
X137505152Y-97978571D01*
X137505152Y-97978571D02*
X137352771Y-97940475D01*
X137352771Y-97940475D02*
X137276580Y-97902380D01*
X137276580Y-97902380D02*
X137200390Y-97826190D01*
X137200390Y-97826190D02*
X137162295Y-97711904D01*
X137162295Y-97711904D02*
X137162295Y-97635713D01*
X137162295Y-97635713D02*
X137200390Y-97521428D01*
X137200390Y-97521428D02*
X137238485Y-97483332D01*
X137428961Y-96797618D02*
X137962295Y-96797618D01*
X137124200Y-96988094D02*
X137695628Y-97178571D01*
X137695628Y-97178571D02*
X137695628Y-96683332D01*
X131412295Y-105733332D02*
X131031342Y-105999999D01*
X131412295Y-106190475D02*
X130612295Y-106190475D01*
X130612295Y-106190475D02*
X130612295Y-105885713D01*
X130612295Y-105885713D02*
X130650390Y-105809523D01*
X130650390Y-105809523D02*
X130688485Y-105771428D01*
X130688485Y-105771428D02*
X130764676Y-105733332D01*
X130764676Y-105733332D02*
X130878961Y-105733332D01*
X130878961Y-105733332D02*
X130955152Y-105771428D01*
X130955152Y-105771428D02*
X130993247Y-105809523D01*
X130993247Y-105809523D02*
X131031342Y-105885713D01*
X131031342Y-105885713D02*
X131031342Y-106190475D01*
X130612295Y-105466666D02*
X130612295Y-104971428D01*
X130612295Y-104971428D02*
X130917057Y-105238094D01*
X130917057Y-105238094D02*
X130917057Y-105123809D01*
X130917057Y-105123809D02*
X130955152Y-105047618D01*
X130955152Y-105047618D02*
X130993247Y-105009523D01*
X130993247Y-105009523D02*
X131069438Y-104971428D01*
X131069438Y-104971428D02*
X131259914Y-104971428D01*
X131259914Y-104971428D02*
X131336104Y-105009523D01*
X131336104Y-105009523D02*
X131374200Y-105047618D01*
X131374200Y-105047618D02*
X131412295Y-105123809D01*
X131412295Y-105123809D02*
X131412295Y-105352380D01*
X131412295Y-105352380D02*
X131374200Y-105428571D01*
X131374200Y-105428571D02*
X131336104Y-105466666D01*
X109766667Y-101012295D02*
X109500000Y-100631342D01*
X109309524Y-101012295D02*
X109309524Y-100212295D01*
X109309524Y-100212295D02*
X109614286Y-100212295D01*
X109614286Y-100212295D02*
X109690476Y-100250390D01*
X109690476Y-100250390D02*
X109728571Y-100288485D01*
X109728571Y-100288485D02*
X109766667Y-100364676D01*
X109766667Y-100364676D02*
X109766667Y-100478961D01*
X109766667Y-100478961D02*
X109728571Y-100555152D01*
X109728571Y-100555152D02*
X109690476Y-100593247D01*
X109690476Y-100593247D02*
X109614286Y-100631342D01*
X109614286Y-100631342D02*
X109309524Y-100631342D01*
X110071428Y-100288485D02*
X110109524Y-100250390D01*
X110109524Y-100250390D02*
X110185714Y-100212295D01*
X110185714Y-100212295D02*
X110376190Y-100212295D01*
X110376190Y-100212295D02*
X110452381Y-100250390D01*
X110452381Y-100250390D02*
X110490476Y-100288485D01*
X110490476Y-100288485D02*
X110528571Y-100364676D01*
X110528571Y-100364676D02*
X110528571Y-100440866D01*
X110528571Y-100440866D02*
X110490476Y-100555152D01*
X110490476Y-100555152D02*
X110033333Y-101012295D01*
X110033333Y-101012295D02*
X110528571Y-101012295D01*
X137123809Y-100738485D02*
X137047619Y-100700390D01*
X137047619Y-100700390D02*
X136971428Y-100624200D01*
X136971428Y-100624200D02*
X136857142Y-100509914D01*
X136857142Y-100509914D02*
X136780952Y-100471819D01*
X136780952Y-100471819D02*
X136704761Y-100471819D01*
X136742857Y-100662295D02*
X136666666Y-100624200D01*
X136666666Y-100624200D02*
X136590476Y-100548009D01*
X136590476Y-100548009D02*
X136552380Y-100395628D01*
X136552380Y-100395628D02*
X136552380Y-100128961D01*
X136552380Y-100128961D02*
X136590476Y-99976580D01*
X136590476Y-99976580D02*
X136666666Y-99900390D01*
X136666666Y-99900390D02*
X136742857Y-99862295D01*
X136742857Y-99862295D02*
X136895238Y-99862295D01*
X136895238Y-99862295D02*
X136971428Y-99900390D01*
X136971428Y-99900390D02*
X137047619Y-99976580D01*
X137047619Y-99976580D02*
X137085714Y-100128961D01*
X137085714Y-100128961D02*
X137085714Y-100395628D01*
X137085714Y-100395628D02*
X137047619Y-100548009D01*
X137047619Y-100548009D02*
X136971428Y-100624200D01*
X136971428Y-100624200D02*
X136895238Y-100662295D01*
X136895238Y-100662295D02*
X136742857Y-100662295D01*
X137847618Y-100662295D02*
X137390475Y-100662295D01*
X137619047Y-100662295D02*
X137619047Y-99862295D01*
X137619047Y-99862295D02*
X137542856Y-99976580D01*
X137542856Y-99976580D02*
X137466666Y-100052771D01*
X137466666Y-100052771D02*
X137390475Y-100090866D01*
X130085714Y-97286104D02*
X130047618Y-97324200D01*
X130047618Y-97324200D02*
X129933333Y-97362295D01*
X129933333Y-97362295D02*
X129857142Y-97362295D01*
X129857142Y-97362295D02*
X129742856Y-97324200D01*
X129742856Y-97324200D02*
X129666666Y-97248009D01*
X129666666Y-97248009D02*
X129628571Y-97171819D01*
X129628571Y-97171819D02*
X129590475Y-97019438D01*
X129590475Y-97019438D02*
X129590475Y-96905152D01*
X129590475Y-96905152D02*
X129628571Y-96752771D01*
X129628571Y-96752771D02*
X129666666Y-96676580D01*
X129666666Y-96676580D02*
X129742856Y-96600390D01*
X129742856Y-96600390D02*
X129857142Y-96562295D01*
X129857142Y-96562295D02*
X129933333Y-96562295D01*
X129933333Y-96562295D02*
X130047618Y-96600390D01*
X130047618Y-96600390D02*
X130085714Y-96638485D01*
X130847618Y-97362295D02*
X130390475Y-97362295D01*
X130619047Y-97362295D02*
X130619047Y-96562295D01*
X130619047Y-96562295D02*
X130542856Y-96676580D01*
X130542856Y-96676580D02*
X130466666Y-96752771D01*
X130466666Y-96752771D02*
X130390475Y-96790866D01*
X131609523Y-97362295D02*
X131152380Y-97362295D01*
X131380952Y-97362295D02*
X131380952Y-96562295D01*
X131380952Y-96562295D02*
X131304761Y-96676580D01*
X131304761Y-96676580D02*
X131228571Y-96752771D01*
X131228571Y-96752771D02*
X131152380Y-96790866D01*
X125016667Y-91786104D02*
X124978571Y-91824200D01*
X124978571Y-91824200D02*
X124864286Y-91862295D01*
X124864286Y-91862295D02*
X124788095Y-91862295D01*
X124788095Y-91862295D02*
X124673809Y-91824200D01*
X124673809Y-91824200D02*
X124597619Y-91748009D01*
X124597619Y-91748009D02*
X124559524Y-91671819D01*
X124559524Y-91671819D02*
X124521428Y-91519438D01*
X124521428Y-91519438D02*
X124521428Y-91405152D01*
X124521428Y-91405152D02*
X124559524Y-91252771D01*
X124559524Y-91252771D02*
X124597619Y-91176580D01*
X124597619Y-91176580D02*
X124673809Y-91100390D01*
X124673809Y-91100390D02*
X124788095Y-91062295D01*
X124788095Y-91062295D02*
X124864286Y-91062295D01*
X124864286Y-91062295D02*
X124978571Y-91100390D01*
X124978571Y-91100390D02*
X125016667Y-91138485D01*
X125473809Y-91405152D02*
X125397619Y-91367057D01*
X125397619Y-91367057D02*
X125359524Y-91328961D01*
X125359524Y-91328961D02*
X125321428Y-91252771D01*
X125321428Y-91252771D02*
X125321428Y-91214676D01*
X125321428Y-91214676D02*
X125359524Y-91138485D01*
X125359524Y-91138485D02*
X125397619Y-91100390D01*
X125397619Y-91100390D02*
X125473809Y-91062295D01*
X125473809Y-91062295D02*
X125626190Y-91062295D01*
X125626190Y-91062295D02*
X125702381Y-91100390D01*
X125702381Y-91100390D02*
X125740476Y-91138485D01*
X125740476Y-91138485D02*
X125778571Y-91214676D01*
X125778571Y-91214676D02*
X125778571Y-91252771D01*
X125778571Y-91252771D02*
X125740476Y-91328961D01*
X125740476Y-91328961D02*
X125702381Y-91367057D01*
X125702381Y-91367057D02*
X125626190Y-91405152D01*
X125626190Y-91405152D02*
X125473809Y-91405152D01*
X125473809Y-91405152D02*
X125397619Y-91443247D01*
X125397619Y-91443247D02*
X125359524Y-91481342D01*
X125359524Y-91481342D02*
X125321428Y-91557533D01*
X125321428Y-91557533D02*
X125321428Y-91709914D01*
X125321428Y-91709914D02*
X125359524Y-91786104D01*
X125359524Y-91786104D02*
X125397619Y-91824200D01*
X125397619Y-91824200D02*
X125473809Y-91862295D01*
X125473809Y-91862295D02*
X125626190Y-91862295D01*
X125626190Y-91862295D02*
X125702381Y-91824200D01*
X125702381Y-91824200D02*
X125740476Y-91786104D01*
X125740476Y-91786104D02*
X125778571Y-91709914D01*
X125778571Y-91709914D02*
X125778571Y-91557533D01*
X125778571Y-91557533D02*
X125740476Y-91481342D01*
X125740476Y-91481342D02*
X125702381Y-91443247D01*
X125702381Y-91443247D02*
X125626190Y-91405152D01*
X113140476Y-107112295D02*
X113140476Y-107759914D01*
X113140476Y-107759914D02*
X113178571Y-107836104D01*
X113178571Y-107836104D02*
X113216666Y-107874200D01*
X113216666Y-107874200D02*
X113292857Y-107912295D01*
X113292857Y-107912295D02*
X113445238Y-107912295D01*
X113445238Y-107912295D02*
X113521428Y-107874200D01*
X113521428Y-107874200D02*
X113559523Y-107836104D01*
X113559523Y-107836104D02*
X113597619Y-107759914D01*
X113597619Y-107759914D02*
X113597619Y-107112295D01*
X113940475Y-107188485D02*
X113978571Y-107150390D01*
X113978571Y-107150390D02*
X114054761Y-107112295D01*
X114054761Y-107112295D02*
X114245237Y-107112295D01*
X114245237Y-107112295D02*
X114321428Y-107150390D01*
X114321428Y-107150390D02*
X114359523Y-107188485D01*
X114359523Y-107188485D02*
X114397618Y-107264676D01*
X114397618Y-107264676D02*
X114397618Y-107340866D01*
X114397618Y-107340866D02*
X114359523Y-107455152D01*
X114359523Y-107455152D02*
X113902380Y-107912295D01*
X113902380Y-107912295D02*
X114397618Y-107912295D01*
X128790476Y-91762295D02*
X128790476Y-92409914D01*
X128790476Y-92409914D02*
X128828571Y-92486104D01*
X128828571Y-92486104D02*
X128866666Y-92524200D01*
X128866666Y-92524200D02*
X128942857Y-92562295D01*
X128942857Y-92562295D02*
X129095238Y-92562295D01*
X129095238Y-92562295D02*
X129171428Y-92524200D01*
X129171428Y-92524200D02*
X129209523Y-92486104D01*
X129209523Y-92486104D02*
X129247619Y-92409914D01*
X129247619Y-92409914D02*
X129247619Y-91762295D01*
X129971428Y-91762295D02*
X129819047Y-91762295D01*
X129819047Y-91762295D02*
X129742856Y-91800390D01*
X129742856Y-91800390D02*
X129704761Y-91838485D01*
X129704761Y-91838485D02*
X129628571Y-91952771D01*
X129628571Y-91952771D02*
X129590475Y-92105152D01*
X129590475Y-92105152D02*
X129590475Y-92409914D01*
X129590475Y-92409914D02*
X129628571Y-92486104D01*
X129628571Y-92486104D02*
X129666666Y-92524200D01*
X129666666Y-92524200D02*
X129742856Y-92562295D01*
X129742856Y-92562295D02*
X129895237Y-92562295D01*
X129895237Y-92562295D02*
X129971428Y-92524200D01*
X129971428Y-92524200D02*
X130009523Y-92486104D01*
X130009523Y-92486104D02*
X130047618Y-92409914D01*
X130047618Y-92409914D02*
X130047618Y-92219438D01*
X130047618Y-92219438D02*
X130009523Y-92143247D01*
X130009523Y-92143247D02*
X129971428Y-92105152D01*
X129971428Y-92105152D02*
X129895237Y-92067057D01*
X129895237Y-92067057D02*
X129742856Y-92067057D01*
X129742856Y-92067057D02*
X129666666Y-92105152D01*
X129666666Y-92105152D02*
X129628571Y-92143247D01*
X129628571Y-92143247D02*
X129590475Y-92219438D01*
X109866667Y-95512295D02*
X109600000Y-95131342D01*
X109409524Y-95512295D02*
X109409524Y-94712295D01*
X109409524Y-94712295D02*
X109714286Y-94712295D01*
X109714286Y-94712295D02*
X109790476Y-94750390D01*
X109790476Y-94750390D02*
X109828571Y-94788485D01*
X109828571Y-94788485D02*
X109866667Y-94864676D01*
X109866667Y-94864676D02*
X109866667Y-94978961D01*
X109866667Y-94978961D02*
X109828571Y-95055152D01*
X109828571Y-95055152D02*
X109790476Y-95093247D01*
X109790476Y-95093247D02*
X109714286Y-95131342D01*
X109714286Y-95131342D02*
X109409524Y-95131342D01*
X110628571Y-95512295D02*
X110171428Y-95512295D01*
X110400000Y-95512295D02*
X110400000Y-94712295D01*
X110400000Y-94712295D02*
X110323809Y-94826580D01*
X110323809Y-94826580D02*
X110247619Y-94902771D01*
X110247619Y-94902771D02*
X110171428Y-94940866D01*
X118140476Y-93412295D02*
X118140476Y-94059914D01*
X118140476Y-94059914D02*
X118178571Y-94136104D01*
X118178571Y-94136104D02*
X118216666Y-94174200D01*
X118216666Y-94174200D02*
X118292857Y-94212295D01*
X118292857Y-94212295D02*
X118445238Y-94212295D01*
X118445238Y-94212295D02*
X118521428Y-94174200D01*
X118521428Y-94174200D02*
X118559523Y-94136104D01*
X118559523Y-94136104D02*
X118597619Y-94059914D01*
X118597619Y-94059914D02*
X118597619Y-93412295D01*
X119359523Y-93412295D02*
X118978571Y-93412295D01*
X118978571Y-93412295D02*
X118940475Y-93793247D01*
X118940475Y-93793247D02*
X118978571Y-93755152D01*
X118978571Y-93755152D02*
X119054761Y-93717057D01*
X119054761Y-93717057D02*
X119245237Y-93717057D01*
X119245237Y-93717057D02*
X119321428Y-93755152D01*
X119321428Y-93755152D02*
X119359523Y-93793247D01*
X119359523Y-93793247D02*
X119397618Y-93869438D01*
X119397618Y-93869438D02*
X119397618Y-94059914D01*
X119397618Y-94059914D02*
X119359523Y-94136104D01*
X119359523Y-94136104D02*
X119321428Y-94174200D01*
X119321428Y-94174200D02*
X119245237Y-94212295D01*
X119245237Y-94212295D02*
X119054761Y-94212295D01*
X119054761Y-94212295D02*
X118978571Y-94174200D01*
X118978571Y-94174200D02*
X118940475Y-94136104D01*
X132612295Y-105733332D02*
X132231342Y-105999999D01*
X132612295Y-106190475D02*
X131812295Y-106190475D01*
X131812295Y-106190475D02*
X131812295Y-105885713D01*
X131812295Y-105885713D02*
X131850390Y-105809523D01*
X131850390Y-105809523D02*
X131888485Y-105771428D01*
X131888485Y-105771428D02*
X131964676Y-105733332D01*
X131964676Y-105733332D02*
X132078961Y-105733332D01*
X132078961Y-105733332D02*
X132155152Y-105771428D01*
X132155152Y-105771428D02*
X132193247Y-105809523D01*
X132193247Y-105809523D02*
X132231342Y-105885713D01*
X132231342Y-105885713D02*
X132231342Y-106190475D01*
X132155152Y-105276190D02*
X132117057Y-105352380D01*
X132117057Y-105352380D02*
X132078961Y-105390475D01*
X132078961Y-105390475D02*
X132002771Y-105428571D01*
X132002771Y-105428571D02*
X131964676Y-105428571D01*
X131964676Y-105428571D02*
X131888485Y-105390475D01*
X131888485Y-105390475D02*
X131850390Y-105352380D01*
X131850390Y-105352380D02*
X131812295Y-105276190D01*
X131812295Y-105276190D02*
X131812295Y-105123809D01*
X131812295Y-105123809D02*
X131850390Y-105047618D01*
X131850390Y-105047618D02*
X131888485Y-105009523D01*
X131888485Y-105009523D02*
X131964676Y-104971428D01*
X131964676Y-104971428D02*
X132002771Y-104971428D01*
X132002771Y-104971428D02*
X132078961Y-105009523D01*
X132078961Y-105009523D02*
X132117057Y-105047618D01*
X132117057Y-105047618D02*
X132155152Y-105123809D01*
X132155152Y-105123809D02*
X132155152Y-105276190D01*
X132155152Y-105276190D02*
X132193247Y-105352380D01*
X132193247Y-105352380D02*
X132231342Y-105390475D01*
X132231342Y-105390475D02*
X132307533Y-105428571D01*
X132307533Y-105428571D02*
X132459914Y-105428571D01*
X132459914Y-105428571D02*
X132536104Y-105390475D01*
X132536104Y-105390475D02*
X132574200Y-105352380D01*
X132574200Y-105352380D02*
X132612295Y-105276190D01*
X132612295Y-105276190D02*
X132612295Y-105123809D01*
X132612295Y-105123809D02*
X132574200Y-105047618D01*
X132574200Y-105047618D02*
X132536104Y-105009523D01*
X132536104Y-105009523D02*
X132459914Y-104971428D01*
X132459914Y-104971428D02*
X132307533Y-104971428D01*
X132307533Y-104971428D02*
X132231342Y-105009523D01*
X132231342Y-105009523D02*
X132193247Y-105047618D01*
X132193247Y-105047618D02*
X132155152Y-105123809D01*
X116616667Y-103186104D02*
X116578571Y-103224200D01*
X116578571Y-103224200D02*
X116464286Y-103262295D01*
X116464286Y-103262295D02*
X116388095Y-103262295D01*
X116388095Y-103262295D02*
X116273809Y-103224200D01*
X116273809Y-103224200D02*
X116197619Y-103148009D01*
X116197619Y-103148009D02*
X116159524Y-103071819D01*
X116159524Y-103071819D02*
X116121428Y-102919438D01*
X116121428Y-102919438D02*
X116121428Y-102805152D01*
X116121428Y-102805152D02*
X116159524Y-102652771D01*
X116159524Y-102652771D02*
X116197619Y-102576580D01*
X116197619Y-102576580D02*
X116273809Y-102500390D01*
X116273809Y-102500390D02*
X116388095Y-102462295D01*
X116388095Y-102462295D02*
X116464286Y-102462295D01*
X116464286Y-102462295D02*
X116578571Y-102500390D01*
X116578571Y-102500390D02*
X116616667Y-102538485D01*
X116921428Y-102538485D02*
X116959524Y-102500390D01*
X116959524Y-102500390D02*
X117035714Y-102462295D01*
X117035714Y-102462295D02*
X117226190Y-102462295D01*
X117226190Y-102462295D02*
X117302381Y-102500390D01*
X117302381Y-102500390D02*
X117340476Y-102538485D01*
X117340476Y-102538485D02*
X117378571Y-102614676D01*
X117378571Y-102614676D02*
X117378571Y-102690866D01*
X117378571Y-102690866D02*
X117340476Y-102805152D01*
X117340476Y-102805152D02*
X116883333Y-103262295D01*
X116883333Y-103262295D02*
X117378571Y-103262295D01*
X119536104Y-104314285D02*
X119574200Y-104352381D01*
X119574200Y-104352381D02*
X119612295Y-104466666D01*
X119612295Y-104466666D02*
X119612295Y-104542857D01*
X119612295Y-104542857D02*
X119574200Y-104657143D01*
X119574200Y-104657143D02*
X119498009Y-104733333D01*
X119498009Y-104733333D02*
X119421819Y-104771428D01*
X119421819Y-104771428D02*
X119269438Y-104809524D01*
X119269438Y-104809524D02*
X119155152Y-104809524D01*
X119155152Y-104809524D02*
X119002771Y-104771428D01*
X119002771Y-104771428D02*
X118926580Y-104733333D01*
X118926580Y-104733333D02*
X118850390Y-104657143D01*
X118850390Y-104657143D02*
X118812295Y-104542857D01*
X118812295Y-104542857D02*
X118812295Y-104466666D01*
X118812295Y-104466666D02*
X118850390Y-104352381D01*
X118850390Y-104352381D02*
X118888485Y-104314285D01*
X119612295Y-103552381D02*
X119612295Y-104009524D01*
X119612295Y-103780952D02*
X118812295Y-103780952D01*
X118812295Y-103780952D02*
X118926580Y-103857143D01*
X118926580Y-103857143D02*
X119002771Y-103933333D01*
X119002771Y-103933333D02*
X119040866Y-104009524D01*
X118812295Y-103057142D02*
X118812295Y-102980952D01*
X118812295Y-102980952D02*
X118850390Y-102904761D01*
X118850390Y-102904761D02*
X118888485Y-102866666D01*
X118888485Y-102866666D02*
X118964676Y-102828571D01*
X118964676Y-102828571D02*
X119117057Y-102790476D01*
X119117057Y-102790476D02*
X119307533Y-102790476D01*
X119307533Y-102790476D02*
X119459914Y-102828571D01*
X119459914Y-102828571D02*
X119536104Y-102866666D01*
X119536104Y-102866666D02*
X119574200Y-102904761D01*
X119574200Y-102904761D02*
X119612295Y-102980952D01*
X119612295Y-102980952D02*
X119612295Y-103057142D01*
X119612295Y-103057142D02*
X119574200Y-103133333D01*
X119574200Y-103133333D02*
X119536104Y-103171428D01*
X119536104Y-103171428D02*
X119459914Y-103209523D01*
X119459914Y-103209523D02*
X119307533Y-103247619D01*
X119307533Y-103247619D02*
X119117057Y-103247619D01*
X119117057Y-103247619D02*
X118964676Y-103209523D01*
X118964676Y-103209523D02*
X118888485Y-103171428D01*
X118888485Y-103171428D02*
X118850390Y-103133333D01*
X118850390Y-103133333D02*
X118812295Y-103057142D01*
X117316667Y-99836104D02*
X117278571Y-99874200D01*
X117278571Y-99874200D02*
X117164286Y-99912295D01*
X117164286Y-99912295D02*
X117088095Y-99912295D01*
X117088095Y-99912295D02*
X116973809Y-99874200D01*
X116973809Y-99874200D02*
X116897619Y-99798009D01*
X116897619Y-99798009D02*
X116859524Y-99721819D01*
X116859524Y-99721819D02*
X116821428Y-99569438D01*
X116821428Y-99569438D02*
X116821428Y-99455152D01*
X116821428Y-99455152D02*
X116859524Y-99302771D01*
X116859524Y-99302771D02*
X116897619Y-99226580D01*
X116897619Y-99226580D02*
X116973809Y-99150390D01*
X116973809Y-99150390D02*
X117088095Y-99112295D01*
X117088095Y-99112295D02*
X117164286Y-99112295D01*
X117164286Y-99112295D02*
X117278571Y-99150390D01*
X117278571Y-99150390D02*
X117316667Y-99188485D01*
X117697619Y-99912295D02*
X117850000Y-99912295D01*
X117850000Y-99912295D02*
X117926190Y-99874200D01*
X117926190Y-99874200D02*
X117964286Y-99836104D01*
X117964286Y-99836104D02*
X118040476Y-99721819D01*
X118040476Y-99721819D02*
X118078571Y-99569438D01*
X118078571Y-99569438D02*
X118078571Y-99264676D01*
X118078571Y-99264676D02*
X118040476Y-99188485D01*
X118040476Y-99188485D02*
X118002381Y-99150390D01*
X118002381Y-99150390D02*
X117926190Y-99112295D01*
X117926190Y-99112295D02*
X117773809Y-99112295D01*
X117773809Y-99112295D02*
X117697619Y-99150390D01*
X117697619Y-99150390D02*
X117659524Y-99188485D01*
X117659524Y-99188485D02*
X117621428Y-99264676D01*
X117621428Y-99264676D02*
X117621428Y-99455152D01*
X117621428Y-99455152D02*
X117659524Y-99531342D01*
X117659524Y-99531342D02*
X117697619Y-99569438D01*
X117697619Y-99569438D02*
X117773809Y-99607533D01*
X117773809Y-99607533D02*
X117926190Y-99607533D01*
X117926190Y-99607533D02*
X118002381Y-99569438D01*
X118002381Y-99569438D02*
X118040476Y-99531342D01*
X118040476Y-99531342D02*
X118078571Y-99455152D01*
X116466667Y-107862295D02*
X116200000Y-107481342D01*
X116009524Y-107862295D02*
X116009524Y-107062295D01*
X116009524Y-107062295D02*
X116314286Y-107062295D01*
X116314286Y-107062295D02*
X116390476Y-107100390D01*
X116390476Y-107100390D02*
X116428571Y-107138485D01*
X116428571Y-107138485D02*
X116466667Y-107214676D01*
X116466667Y-107214676D02*
X116466667Y-107328961D01*
X116466667Y-107328961D02*
X116428571Y-107405152D01*
X116428571Y-107405152D02*
X116390476Y-107443247D01*
X116390476Y-107443247D02*
X116314286Y-107481342D01*
X116314286Y-107481342D02*
X116009524Y-107481342D01*
X117152381Y-107328961D02*
X117152381Y-107862295D01*
X116961905Y-107024200D02*
X116771428Y-107595628D01*
X116771428Y-107595628D02*
X117266667Y-107595628D01*
%TO.C,D3*%
D12*
X127940000Y-107535000D02*
X127940000Y-106065000D01*
X127965000Y-107535000D02*
X127940000Y-107535000D01*
X130160000Y-107535000D02*
X130135000Y-107535000D01*
X127940000Y-106065000D02*
X127965000Y-106065000D01*
X130135000Y-106065000D02*
X130160000Y-106065000D01*
X130160000Y-106065000D02*
X130160000Y-107535000D01*
X127960000Y-107980000D02*
X127770000Y-108120000D01*
X127770000Y-107840000D01*
X127960000Y-107980000D01*
G36*
X127960000Y-107980000D02*
G01*
X127770000Y-108120000D01*
X127770000Y-107840000D01*
X127960000Y-107980000D01*
G37*
%TO.C,C5*%
X127242164Y-103590000D02*
X127457836Y-103590000D01*
X127242164Y-104310000D02*
X127457836Y-104310000D01*
%TO.C,D1*%
X139265000Y-97625000D02*
X140735000Y-97625000D01*
X139265000Y-97650000D02*
X139265000Y-97625000D01*
X139265000Y-99845000D02*
X139265000Y-99820000D01*
X140735000Y-97625000D02*
X140735000Y-97650000D01*
X140735000Y-99820000D02*
X140735000Y-99845000D01*
X140735000Y-99845000D02*
X139265000Y-99845000D01*
X138820000Y-97645000D02*
X138680000Y-97455000D01*
X138960000Y-97455000D01*
X138820000Y-97645000D01*
G36*
X138820000Y-97645000D02*
G01*
X138680000Y-97455000D01*
X138960000Y-97455000D01*
X138820000Y-97645000D01*
G37*
%TO.C,U1*%
X112390000Y-97940000D02*
X114210000Y-97940000D01*
X112390000Y-97990000D02*
X112390000Y-97940000D01*
X112390000Y-101060000D02*
X112390000Y-101010000D01*
X114210000Y-97940000D02*
X114210000Y-97990000D01*
X114210000Y-101010000D02*
X114210000Y-101060000D01*
X114210000Y-101060000D02*
X112390000Y-101060000D01*
X111850000Y-97990000D02*
X111610000Y-97660000D01*
X112090000Y-97660000D01*
X111850000Y-97990000D01*
G36*
X111850000Y-97990000D02*
G01*
X111610000Y-97660000D01*
X112090000Y-97660000D01*
X111850000Y-97990000D01*
G37*
%TO.C,C6*%
X130240000Y-101142164D02*
X130240000Y-101357836D01*
X130960000Y-101142164D02*
X130960000Y-101357836D01*
%TO.C,J1*%
X100200000Y-95300000D02*
X100200000Y-104700000D01*
X101100000Y-95300000D02*
X100200000Y-95300000D01*
X101100000Y-104700000D02*
X100200000Y-104700000D01*
X105100000Y-95300000D02*
X103100000Y-95300000D01*
X105100000Y-104700000D02*
X103100000Y-104700000D01*
%TO.C,R6*%
X114396359Y-95270000D02*
X114703641Y-95270000D01*
X114396359Y-96030000D02*
X114703641Y-96030000D01*
%TO.C,C7*%
X120957836Y-91140000D02*
X120742164Y-91140000D01*
X120957836Y-91860000D02*
X120742164Y-91860000D01*
%TO.C,J2*%
X141845000Y-94930000D02*
X143115000Y-94930000D01*
X141845000Y-96200000D02*
X141845000Y-94930000D01*
X144192358Y-98310000D02*
X144505000Y-98310000D01*
X144192358Y-99170000D02*
X144505000Y-99170000D01*
X144192358Y-100850000D02*
X144505000Y-100850000D01*
X144192358Y-101710000D02*
X144505000Y-101710000D01*
X144192358Y-103390000D02*
X144505000Y-103390000D01*
X144192358Y-104250000D02*
X144505000Y-104250000D01*
X144275000Y-95770000D02*
X144505000Y-95770000D01*
X144275000Y-96630000D02*
X144505000Y-96630000D01*
X144505000Y-97470000D02*
X147265000Y-97470000D01*
X144505000Y-100010000D02*
X147265000Y-100010000D01*
X144505000Y-102550000D02*
X147265000Y-102550000D01*
X147265000Y-98310000D02*
X153265000Y-98310000D01*
X147265000Y-100850000D02*
X153265000Y-100850000D01*
X147265000Y-103390000D02*
X153265000Y-103390000D01*
X153265000Y-98310000D02*
X153265000Y-99170000D01*
X153265000Y-99170000D02*
X147265000Y-99170000D01*
X153265000Y-100850000D02*
X153265000Y-101710000D01*
X153265000Y-101710000D02*
X147265000Y-101710000D01*
X153265000Y-103390000D02*
X153265000Y-104250000D01*
X153265000Y-104250000D02*
X147265000Y-104250000D01*
X144505000Y-94820000D02*
X147265000Y-94820000D01*
X147265000Y-105200000D01*
X144505000Y-105200000D01*
X144505000Y-94820000D01*
X147265000Y-95770000D02*
X153265000Y-95770000D01*
X153265000Y-96630000D01*
X147265000Y-96630000D01*
X147265000Y-95770000D01*
G36*
X147265000Y-95770000D02*
G01*
X153265000Y-95770000D01*
X153265000Y-96630000D01*
X147265000Y-96630000D01*
X147265000Y-95770000D01*
G37*
%TO.C,C1*%
X112892164Y-102190000D02*
X113107836Y-102190000D01*
X112892164Y-102910000D02*
X113107836Y-102910000D01*
%TO.C,R7*%
X114396359Y-96270000D02*
X114703641Y-96270000D01*
X114396359Y-97030000D02*
X114703641Y-97030000D01*
%TO.C,C3*%
X136292164Y-101540000D02*
X136507836Y-101540000D01*
X136292164Y-102260000D02*
X136507836Y-102260000D01*
%TO.C,D2*%
X111590000Y-91245000D02*
X111590000Y-91090000D01*
X111590000Y-93955000D02*
X111590000Y-94110000D01*
X114600000Y-94110000D02*
X111590000Y-94110000D01*
X115010000Y-91090000D02*
X111590000Y-91090000D01*
X115010000Y-91245000D02*
X115010000Y-91090000D01*
X115000000Y-94000000D02*
X115240000Y-94330000D01*
X114760000Y-94330000D01*
X115000000Y-94000000D01*
G36*
X115240000Y-94330000D02*
G01*
X114760000Y-94330000D01*
X115000000Y-94000000D01*
X115240000Y-94330000D01*
G37*
%TO.C,U3*%
X133940000Y-102777500D02*
X135760000Y-102777500D01*
X133940000Y-102827500D02*
X133940000Y-102777500D01*
X133940000Y-105897500D02*
X133940000Y-105847500D01*
X135760000Y-102777500D02*
X135760000Y-102827500D01*
X135760000Y-103947500D02*
X135760000Y-104727500D01*
X135760000Y-105847500D02*
X135760000Y-105897500D01*
X135760000Y-105897500D02*
X133940000Y-105897500D01*
X133400000Y-102827500D02*
X133160000Y-102497500D01*
X133640000Y-102497500D01*
X133400000Y-102827500D01*
G36*
X133400000Y-102827500D02*
G01*
X133160000Y-102497500D01*
X133640000Y-102497500D01*
X133400000Y-102827500D01*
G37*
%TO.C,J3*%
X120390000Y-108580000D02*
X120390000Y-107400000D01*
X120455000Y-104950000D02*
X127025000Y-104950000D01*
X120455000Y-105812077D02*
X120455000Y-104950000D01*
X121200000Y-108580000D02*
X120390000Y-108580000D01*
X122010000Y-108580000D02*
X122010000Y-108066708D01*
X122010000Y-108580000D02*
X127025000Y-108580000D01*
X127025000Y-105812077D02*
X127025000Y-104950000D01*
X127025000Y-107082077D02*
X127025000Y-106447923D01*
X127025000Y-108580000D02*
X127025000Y-107717923D01*
%TO.C,R5*%
X134096359Y-101520000D02*
X134403641Y-101520000D01*
X134096359Y-102280000D02*
X134403641Y-102280000D01*
%TO.C,F1*%
X109091422Y-105590000D02*
X109608578Y-105590000D01*
X109091422Y-107010000D02*
X109608578Y-107010000D01*
%TO.C,C4*%
X136040000Y-97407836D02*
X136040000Y-97192164D01*
X136760000Y-97407836D02*
X136760000Y-97192164D01*
%TO.C,R3*%
X130220000Y-98706359D02*
X130220000Y-99013641D01*
X130980000Y-98706359D02*
X130980000Y-99013641D01*
%TO.C,R2*%
X109620000Y-102146359D02*
X109620000Y-102453641D01*
X110380000Y-102146359D02*
X110380000Y-102453641D01*
%TO.C,Q1*%
X134077500Y-97440000D02*
X135597500Y-97440000D01*
X134077500Y-97490000D02*
X134077500Y-97440000D01*
X134077500Y-99390000D02*
X134077500Y-98610000D01*
X134077500Y-100560000D02*
X134077500Y-100510000D01*
X135597500Y-97440000D02*
X135597500Y-98440000D01*
X135597500Y-99560000D02*
X135597500Y-100560000D01*
X135597500Y-100560000D02*
X134077500Y-100560000D01*
X133537500Y-98620000D02*
X133777500Y-98950000D01*
X133297500Y-98950000D01*
X133537500Y-98620000D01*
G36*
X133777500Y-98950000D02*
G01*
X133297500Y-98950000D01*
X133537500Y-98620000D01*
X133777500Y-98950000D01*
G37*
%TO.C,C11*%
X132542164Y-96340000D02*
X132757836Y-96340000D01*
X132542164Y-97060000D02*
X132757836Y-97060000D01*
%TO.C,C8*%
X123242164Y-91140000D02*
X123457836Y-91140000D01*
X123242164Y-91860000D02*
X123457836Y-91860000D01*
%TO.C,U2*%
X112790000Y-103440000D02*
X114610000Y-103440000D01*
X112790000Y-103490000D02*
X112790000Y-103440000D01*
X112790000Y-106560000D02*
X112790000Y-106510000D01*
X114610000Y-103440000D02*
X114610000Y-103490000D01*
X114610000Y-104610000D02*
X114610000Y-105390000D01*
X114610000Y-106510000D02*
X114610000Y-106560000D01*
X114610000Y-106560000D02*
X112790000Y-106560000D01*
X112250000Y-103490000D02*
X112010000Y-103160000D01*
X112490000Y-103160000D01*
X112250000Y-103490000D01*
G36*
X112250000Y-103490000D02*
G01*
X112010000Y-103160000D01*
X112490000Y-103160000D01*
X112250000Y-103490000D01*
G37*
%TO.C,U6*%
X132590000Y-90640000D02*
X136710000Y-90640000D01*
X132590000Y-90735000D02*
X132590000Y-90640000D01*
X132590000Y-95760000D02*
X132590000Y-95665000D01*
X136710000Y-90640000D02*
X136710000Y-90735000D01*
X136710000Y-95665000D02*
X136710000Y-95760000D01*
X136710000Y-95760000D02*
X132590000Y-95760000D01*
X137250000Y-95670000D02*
X137490000Y-96000000D01*
X137010000Y-96000000D01*
X137250000Y-95670000D01*
G36*
X137490000Y-96000000D02*
G01*
X137010000Y-96000000D01*
X137250000Y-95670000D01*
X137490000Y-96000000D01*
G37*
%TO.C,R1*%
X109620000Y-97453641D02*
X109620000Y-97146359D01*
X110380000Y-97453641D02*
X110380000Y-97146359D01*
%TO.C,U5*%
X120490000Y-94390000D02*
X120940000Y-94390000D01*
X120490000Y-94840000D02*
X120490000Y-94390000D01*
X120490000Y-101610000D02*
X120490000Y-101160000D01*
X120940000Y-101610000D02*
X120490000Y-101610000D01*
X127260000Y-94390000D02*
X127710000Y-94390000D01*
X127710000Y-94390000D02*
X127710000Y-94840000D01*
X127710000Y-101160000D02*
X127710000Y-101610000D01*
X127710000Y-101610000D02*
X127260000Y-101610000D01*
X128350000Y-101160000D02*
X128690000Y-101630000D01*
X128010000Y-101630000D01*
X128350000Y-101160000D01*
G36*
X128690000Y-101630000D02*
G01*
X128010000Y-101630000D01*
X128350000Y-101160000D01*
X128690000Y-101630000D01*
G37*
%TO.C,R8*%
X131720000Y-99003641D02*
X131720000Y-98696359D01*
X132480000Y-99003641D02*
X132480000Y-98696359D01*
%TO.C,C2*%
X116290000Y-104442164D02*
X116290000Y-104657836D01*
X117010000Y-104442164D02*
X117010000Y-104657836D01*
%TO.C,C10*%
X118890000Y-107057836D02*
X118890000Y-106842164D01*
X119610000Y-107057836D02*
X119610000Y-106842164D01*
%TO.C,C9*%
X117390000Y-101142164D02*
X117390000Y-101357836D01*
X118110000Y-101142164D02*
X118110000Y-101357836D01*
%TO.C,R4*%
X117870000Y-107103641D02*
X117870000Y-106796359D01*
X118630000Y-107103641D02*
X118630000Y-106796359D01*
%TD*%
M02*
