M48
; DRILL file KiCad 10.0.3 date 2026-05-30T12:57:32
; FORMAT={-:-/ absolute / metric / decimal}
; #@! TF.CreationDate,2026-05-30T12:57:32+03:00
; #@! TF.GenerationSoftware,Kicad,Pcbnew,10.0.3
; #@! TF.FileFunction,Plated,1,4,PTH
FMAT,2
METRIC
; #@! TA.AperFunction,Plated,PTH,ViaDrill
T1C0.300
; #@! TA.AperFunction,Plated,PTH,ComponentDrill
T2C0.600
; #@! TA.AperFunction,Plated,PTH,ComponentDrill
T3C0.650
; #@! TA.AperFunction,Plated,PTH,ComponentDrill
T4C1.000
%
G90
G05
T1
X108.5Y-97.6
X109.0Y-102.4
X110.0Y-96.05
X110.0Y-103.6
X110.7Y-93.3
X111.1Y-99.5
X111.3Y-105.0
X114.25Y-102.55
X115.45Y-99.5
X115.8Y-103.3
X115.95Y-91.85
X116.45Y-96.05
X116.45Y-98.4
X116.65Y-105.8
X118.25Y-105.7
X118.6Y-101.25
X119.25Y-105.7
X120.8Y-92.4
X121.35Y-100.25
X121.85Y-95.3
X122.3Y-92.4
X123.12Y-105.285
X123.25Y-98.6
X123.85Y-92.35
X123.85Y-99.2
X124.35Y-95.25
X124.45Y-99.85
X125.35Y-98.0
X125.6Y-96.15
X125.849Y-91.899
X126.1Y-103.45
X126.75Y-91.895
X126.758Y-98.058
X126.8Y-95.25
X127.7Y-108.3
X127.765Y-105.05
X128.0Y-102.25
X129.05Y-104.8
X129.05Y-108.7
X129.45Y-102.8
X129.7Y-101.45
X129.7Y-104.3
X129.85Y-94.2
X130.5Y-95.1
X130.85Y-107.6
X131.7Y-95.95
X132.05Y-101.45
X132.1Y-104.35
X132.65Y-100.55
X133.75Y-93.25
X134.25Y-96.45
X135.05Y-97.25
X135.3Y-92.55
X135.3Y-98.05
X135.35Y-93.85
X135.4Y-95.1
T3
X121.2Y-106.13
X121.2Y-107.4
X122.47Y-106.13
X122.47Y-107.4
X123.74Y-106.13
X123.74Y-107.4
X125.01Y-106.13
X125.01Y-107.4
X126.28Y-106.13
X126.28Y-107.4
T4
X143.115Y-96.2
X143.115Y-98.74
X143.115Y-101.28
X143.115Y-103.82
T2
G00X102.51Y-95.675
M15
G01X101.71Y-95.675
M16
G05
G00X102.51Y-104.325
M15
G01X101.71Y-104.325
M16
G05
G00X106.84Y-95.675
M15
G01X105.74Y-95.675
M16
G05
G00X106.84Y-104.325
M15
G01X105.74Y-104.325
M16
G05
M30
